<svg xmlns="http://www.w3.org/2000/svg" width="1600" height="768" viewBox="0 0 1600 768" role="img" aria-labelledby="title desc">
  <title id="title">Hub Criativo - Um espaço para mentes curiosas</title>
  <desc id="desc">Mapa visual do Hub Criativo de Lucas Honorato Lopes com áreas de conhecimento, engenharia e criação.</desc>
  <defs>
    <radialGradient id="leftGlow2" cx="34%" cy="48%" r="48%">
      <stop offset="0" stop-color="#1B1F2A" stop-opacity="0.88"/>
      <stop offset="0.55" stop-color="#08090B" stop-opacity="0.94"/>
      <stop offset="1" stop-color="#000000" stop-opacity="1"/>
    </radialGradient>
    <radialGradient id="blueGlow2" cx="33%" cy="52%" r="15%">
      <stop offset="0" stop-color="#2563EB" stop-opacity="0.34"/>
      <stop offset="1" stop-color="#2563EB" stop-opacity="0"/>
    </radialGradient>
    <radialGradient id="rightGlow2" cx="75%" cy="42%" r="42%">
      <stop offset="0" stop-color="#15161B" stop-opacity="0.9"/>
      <stop offset="0.62" stop-color="#050506" stop-opacity="0.96"/>
      <stop offset="1" stop-color="#000000" stop-opacity="1"/>
    </radialGradient>
    <filter id="soft2" x="-20%" y="-20%" width="140%" height="140%">
      <feGaussianBlur stdDeviation="8"/>
    </filter>
  </defs>

  <rect width="1600" height="768" rx="36" fill="#000"/>
  <rect width="1600" height="768" rx="36" fill="url(#leftGlow2)"/>
  <rect width="1600" height="768" rx="36" fill="url(#rightGlow2)"/>
  <circle cx="500" cy="390" r="240" fill="url(#blueGlow2)" filter="url(#soft2)"/>

  <g opacity="0.95"><circle cx="498.0" cy="502.3" r="1.9" fill="#C9D1D9" opacity="0.40"/>
<circle cx="448.6" cy="432.7" r="1.7" fill="#C9D1D9" opacity="0.35"/>
<circle cx="816.0" cy="121.2" r="2.5" fill="#C9D1D9" opacity="0.52"/>
<circle cx="237.0" cy="116.6" r="1.6" fill="#C9D1D9" opacity="0.41"/>
<circle cx="780.1" cy="674.5" r="3.4" fill="#C9D1D9" opacity="0.55"/>
<circle cx="317.7" cy="339.8" r="2.0" fill="#C9D1D9" opacity="0.39"/>
<circle cx="730.5" cy="675.4" r="1.5" fill="#C9D1D9" opacity="0.36"/>
<circle cx="827.7" cy="429.0" r="3.3" fill="#C9D1D9" opacity="0.51"/>
<circle cx="382.8" cy="178.2" r="2.9" fill="#C9D1D9" opacity="0.41"/>
<circle cx="408.0" cy="78.6" r="2.4" fill="#C9D1D9" opacity="0.58"/>
<circle cx="661.4" cy="485.6" r="1.7" fill="#C9D1D9" opacity="0.35"/>
<circle cx="540.9" cy="100.5" r="2.3" fill="#C9D1D9" opacity="0.50"/>
<circle cx="550.3" cy="582.8" r="2.0" fill="#C9D1D9" opacity="0.17"/>
<circle cx="286.4" cy="697.2" r="1.8" fill="#C9D1D9" opacity="0.56"/>
<circle cx="737.9" cy="181.1" r="2.1" fill="#C9D1D9" opacity="0.30"/>
<circle cx="807.3" cy="662.0" r="3.4" fill="#C9D1D9" opacity="0.20"/>
<circle cx="601.9" cy="156.1" r="2.1" fill="#C9D1D9" opacity="0.46"/>
<circle cx="736.8" cy="573.1" r="1.9" fill="#C9D1D9" opacity="0.21"/>
<circle cx="200.7" cy="197.7" r="1.9" fill="#C9D1D9" opacity="0.37"/>
<circle cx="553.5" cy="702.1" r="3.2" fill="#C9D1D9" opacity="0.53"/>
<circle cx="365.2" cy="62.2" r="1.7" fill="#C9D1D9" opacity="0.33"/>
<circle cx="732.7" cy="588.2" r="3.6" fill="#C9D1D9" opacity="0.43"/>
<circle cx="151.2" cy="536.7" r="1.5" fill="#C9D1D9" opacity="0.34"/>
<circle cx="637.3" cy="595.2" r="2.5" fill="#C9D1D9" opacity="0.28"/>
<circle cx="733.5" cy="85.8" r="2.1" fill="#C9D1D9" opacity="0.24"/>
<circle cx="272.1" cy="353.5" r="1.4" fill="#C9D1D9" opacity="0.33"/>
<circle cx="336.5" cy="206.3" r="2.0" fill="#C9D1D9" opacity="0.36"/>
<circle cx="185.4" cy="214.5" r="2.7" fill="#C9D1D9" opacity="0.39"/>
<circle cx="531.6" cy="621.7" r="3.5" fill="#C9D1D9" opacity="0.34"/>
<circle cx="824.5" cy="301.5" r="1.5" fill="#C9D1D9" opacity="0.55"/>
<circle cx="489.1" cy="668.2" r="3.5" fill="#C9D1D9" opacity="0.37"/>
<circle cx="601.2" cy="197.6" r="2.9" fill="#C9D1D9" opacity="0.40"/>
<circle cx="750.3" cy="457.7" r="3.1" fill="#C9D1D9" opacity="0.35"/>
<circle cx="587.0" cy="377.2" r="2.1" fill="#C9D1D9" opacity="0.40"/>
<circle cx="274.0" cy="145.5" r="2.0" fill="#C9D1D9" opacity="0.36"/>
<circle cx="442.0" cy="125.2" r="3.3" fill="#C9D1D9" opacity="0.17"/>
<circle cx="450.0" cy="32.6" r="2.6" fill="#C9D1D9" opacity="0.47"/>
<circle cx="210.2" cy="159.0" r="2.6" fill="#C9D1D9" opacity="0.18"/>
<circle cx="331.6" cy="264.2" r="1.5" fill="#C9D1D9" opacity="0.47"/>
<circle cx="781.3" cy="297.5" r="2.7" fill="#C9D1D9" opacity="0.31"/>
<circle cx="428.7" cy="361.5" r="2.7" fill="#C9D1D9" opacity="0.33"/>
<circle cx="653.3" cy="450.0" r="2.0" fill="#C9D1D9" opacity="0.21"/>
<circle cx="431.5" cy="667.4" r="3.5" fill="#C9D1D9" opacity="0.34"/>
<circle cx="329.0" cy="134.7" r="2.9" fill="#C9D1D9" opacity="0.31"/>
<circle cx="748.3" cy="199.8" r="3.0" fill="#C9D1D9" opacity="0.44"/>
<circle cx="298.8" cy="283.7" r="1.9" fill="#C9D1D9" opacity="0.22"/>
<circle cx="710.5" cy="523.8" r="3.1" fill="#C9D1D9" opacity="0.35"/>
<circle cx="246.5" cy="119.2" r="2.9" fill="#C9D1D9" opacity="0.28"/>
<circle cx="259.6" cy="490.6" r="2.6" fill="#C9D1D9" opacity="0.47"/>
<circle cx="508.5" cy="77.0" r="3.2" fill="#C9D1D9" opacity="0.27"/>
<circle cx="633.2" cy="286.4" r="2.5" fill="#C9D1D9" opacity="0.41"/>
<circle cx="486.6" cy="357.0" r="1.5" fill="#C9D1D9" opacity="0.34"/>
<circle cx="601.5" cy="230.8" r="3.5" fill="#C9D1D9" opacity="0.32"/>
<circle cx="332.0" cy="131.5" r="2.5" fill="#C9D1D9" opacity="0.21"/>
<circle cx="108.1" cy="231.5" r="1.7" fill="#C9D1D9" opacity="0.22"/>
<circle cx="680.1" cy="49.7" r="1.7" fill="#C9D1D9" opacity="0.48"/>
<circle cx="565.4" cy="720.9" r="3.3" fill="#C9D1D9" opacity="0.53"/>
<circle cx="585.3" cy="300.7" r="3.4" fill="#C9D1D9" opacity="0.45"/>
<circle cx="252.7" cy="191.2" r="3.1" fill="#C9D1D9" opacity="0.53"/>
<circle cx="513.0" cy="137.7" r="1.9" fill="#C9D1D9" opacity="0.49"/>
<circle cx="151.5" cy="390.6" r="1.7" fill="#C9D1D9" opacity="0.26"/>
<circle cx="350.7" cy="455.1" r="2.9" fill="#C9D1D9" opacity="0.49"/>
<circle cx="531.5" cy="569.7" r="3.2" fill="#C9D1D9" opacity="0.20"/>
<circle cx="783.2" cy="360.4" r="1.7" fill="#C9D1D9" opacity="0.34"/>
<circle cx="826.7" cy="603.2" r="2.4" fill="#C9D1D9" opacity="0.27"/>
<circle cx="272.3" cy="264.3" r="2.1" fill="#C9D1D9" opacity="0.46"/>
<circle cx="508.3" cy="305.8" r="1.8" fill="#C9D1D9" opacity="0.52"/>
<circle cx="408.9" cy="593.1" r="3.2" fill="#C9D1D9" opacity="0.55"/>
<circle cx="402.4" cy="409.7" r="2.4" fill="#C9D1D9" opacity="0.49"/>
<circle cx="571.7" cy="342.6" r="1.6" fill="#C9D1D9" opacity="0.45"/>
<circle cx="478.8" cy="191.6" r="3.3" fill="#C9D1D9" opacity="0.27"/>
<circle cx="463.2" cy="301.8" r="1.8" fill="#C9D1D9" opacity="0.50"/>
<circle cx="528.3" cy="714.0" r="2.3" fill="#C9D1D9" opacity="0.23"/>
<circle cx="197.1" cy="485.6" r="1.8" fill="#C9D1D9" opacity="0.46"/>
<circle cx="798.3" cy="492.4" r="3.6" fill="#C9D1D9" opacity="0.44"/>
<circle cx="527.3" cy="623.4" r="2.7" fill="#C9D1D9" opacity="0.53"/>
<circle cx="230.1" cy="86.8" r="1.9" fill="#C9D1D9" opacity="0.31"/>
<circle cx="538.9" cy="111.7" r="1.6" fill="#C9D1D9" opacity="0.20"/>
<circle cx="391.6" cy="48.7" r="3.1" fill="#C9D1D9" opacity="0.43"/>
<circle cx="126.1" cy="491.2" r="1.7" fill="#C9D1D9" opacity="0.21"/>
<circle cx="269.2" cy="579.3" r="1.9" fill="#C9D1D9" opacity="0.27"/>
<circle cx="583.7" cy="408.2" r="2.2" fill="#C9D1D9" opacity="0.48"/>
<circle cx="204.4" cy="434.5" r="2.3" fill="#C9D1D9" opacity="0.51"/>
<circle cx="93.9" cy="293.4" r="2.7" fill="#C9D1D9" opacity="0.27"/>
<circle cx="677.2" cy="618.6" r="2.4" fill="#C9D1D9" opacity="0.25"/>
<circle cx="158.1" cy="558.8" r="2.6" fill="#C9D1D9" opacity="0.58"/>
<circle cx="608.8" cy="211.3" r="3.4" fill="#C9D1D9" opacity="0.32"/>
<circle cx="317.0" cy="297.0" r="2.1" fill="#C9D1D9" opacity="0.39"/>
<circle cx="761.9" cy="357.1" r="3.0" fill="#C9D1D9" opacity="0.21"/>
<circle cx="631.2" cy="29.9" r="2.9" fill="#C9D1D9" opacity="0.39"/>
<circle cx="683.6" cy="693.7" r="2.2" fill="#C9D1D9" opacity="0.33"/>
<circle cx="816.4" cy="163.6" r="2.0" fill="#C9D1D9" opacity="0.45"/>
<circle cx="364.2" cy="294.4" r="1.5" fill="#C9D1D9" opacity="0.22"/>
<circle cx="486.1" cy="222.1" r="2.5" fill="#C9D1D9" opacity="0.50"/>
<circle cx="270.4" cy="136.3" r="1.5" fill="#C9D1D9" opacity="0.21"/>
<circle cx="138.2" cy="278.4" r="2.1" fill="#C9D1D9" opacity="0.52"/>
<circle cx="165.8" cy="642.5" r="3.1" fill="#C9D1D9" opacity="0.28"/>
<circle cx="601.6" cy="744.1" r="2.1" fill="#C9D1D9" opacity="0.29"/>
<circle cx="401.9" cy="734.2" r="2.1" fill="#C9D1D9" opacity="0.49"/>
<circle cx="350.7" cy="196.6" r="1.5" fill="#C9D1D9" opacity="0.19"/>
<circle cx="738.4" cy="202.8" r="3.4" fill="#C9D1D9" opacity="0.35"/>
<circle cx="172.0" cy="608.0" r="2.3" fill="#C9D1D9" opacity="0.21"/>
<circle cx="303.3" cy="400.4" r="2.1" fill="#C9D1D9" opacity="0.54"/>
<circle cx="762.7" cy="384.8" r="1.6" fill="#C9D1D9" opacity="0.41"/>
<circle cx="794.1" cy="647.1" r="2.8" fill="#C9D1D9" opacity="0.46"/>
<circle cx="311.8" cy="489.2" r="2.1" fill="#C9D1D9" opacity="0.18"/>
<circle cx="552.1" cy="145.0" r="1.6" fill="#C9D1D9" opacity="0.23"/>
<circle cx="181.1" cy="288.7" r="1.5" fill="#C9D1D9" opacity="0.30"/>
<circle cx="577.7" cy="317.7" r="3.0" fill="#C9D1D9" opacity="0.57"/>
<circle cx="800.1" cy="171.7" r="2.7" fill="#C9D1D9" opacity="0.27"/>
<circle cx="733.7" cy="593.2" r="2.9" fill="#C9D1D9" opacity="0.43"/>
<circle cx="304.5" cy="432.8" r="2.7" fill="#C9D1D9" opacity="0.42"/>
<circle cx="449.5" cy="492.5" r="3.3" fill="#C9D1D9" opacity="0.36"/>
<circle cx="761.9" cy="189.0" r="2.1" fill="#C9D1D9" opacity="0.41"/>
<circle cx="564.6" cy="53.8" r="3.1" fill="#C9D1D9" opacity="0.49"/>
<circle cx="334.2" cy="603.4" r="2.2" fill="#C9D1D9" opacity="0.45"/>
<circle cx="387.5" cy="519.3" r="2.5" fill="#C9D1D9" opacity="0.52"/>
<circle cx="342.1" cy="589.3" r="2.6" fill="#C9D1D9" opacity="0.31"/>
<circle cx="764.3" cy="334.5" r="2.0" fill="#C9D1D9" opacity="0.38"/>
<circle cx="299.6" cy="222.3" r="1.7" fill="#C9D1D9" opacity="0.37"/>
<circle cx="559.1" cy="686.8" r="1.8" fill="#C9D1D9" opacity="0.58"/>
<circle cx="341.2" cy="58.6" r="2.3" fill="#C9D1D9" opacity="0.42"/>
<circle cx="274.6" cy="242.1" r="2.6" fill="#C9D1D9" opacity="0.48"/>
<circle cx="517.8" cy="678.5" r="1.4" fill="#C9D1D9" opacity="0.54"/>
<circle cx="407.3" cy="289.3" r="1.7" fill="#C9D1D9" opacity="0.47"/>
<circle cx="349.2" cy="49.2" r="3.3" fill="#C9D1D9" opacity="0.26"/>
<circle cx="523.4" cy="524.8" r="2.4" fill="#C9D1D9" opacity="0.46"/>
<circle cx="335.5" cy="433.9" r="1.7" fill="#C9D1D9" opacity="0.57"/>
<circle cx="311.9" cy="675.0" r="3.6" fill="#C9D1D9" opacity="0.54"/>
<circle cx="326.4" cy="711.5" r="2.8" fill="#C9D1D9" opacity="0.39"/>
<circle cx="839.2" cy="149.1" r="2.6" fill="#C9D1D9" opacity="0.34"/>
<circle cx="733.8" cy="552.0" r="3.2" fill="#C9D1D9" opacity="0.27"/>
<circle cx="496.0" cy="274.4" r="3.2" fill="#C9D1D9" opacity="0.43"/>
<circle cx="95.3" cy="428.9" r="2.6" fill="#C9D1D9" opacity="0.35"/>
<circle cx="293.7" cy="339.1" r="3.2" fill="#C9D1D9" opacity="0.55"/>
<circle cx="300.8" cy="700.1" r="3.0" fill="#C9D1D9" opacity="0.48"/>
<circle cx="184.0" cy="387.2" r="3.1" fill="#C9D1D9" opacity="0.31"/>
<circle cx="483.8" cy="544.8" r="1.7" fill="#C9D1D9" opacity="0.58"/>
<circle cx="466.1" cy="686.7" r="2.6" fill="#C9D1D9" opacity="0.38"/>
<circle cx="585.9" cy="280.0" r="1.7" fill="#C9D1D9" opacity="0.30"/>
<circle cx="171.3" cy="463.9" r="3.0" fill="#C9D1D9" opacity="0.37"/>
<circle cx="172.9" cy="410.3" r="2.3" fill="#C9D1D9" opacity="0.35"/>
<circle cx="481.0" cy="171.1" r="2.4" fill="#C9D1D9" opacity="0.47"/>
<circle cx="308.4" cy="633.9" r="3.4" fill="#C9D1D9" opacity="0.34"/>
<circle cx="819.3" cy="254.0" r="1.5" fill="#C9D1D9" opacity="0.38"/>
<circle cx="686.5" cy="674.7" r="2.0" fill="#C9D1D9" opacity="0.27"/>
<circle cx="593.9" cy="587.6" r="2.3" fill="#C9D1D9" opacity="0.18"/>
<circle cx="405.3" cy="534.4" r="2.5" fill="#C9D1D9" opacity="0.53"/>
<circle cx="367.5" cy="687.9" r="2.7" fill="#C9D1D9" opacity="0.55"/>
<circle cx="611.4" cy="153.8" r="2.9" fill="#C9D1D9" opacity="0.51"/>
<circle cx="340.8" cy="636.6" r="2.5" fill="#C9D1D9" opacity="0.29"/>
<circle cx="257.2" cy="567.8" r="2.2" fill="#C9D1D9" opacity="0.23"/>
<circle cx="492.0" cy="176.2" r="3.5" fill="#C9D1D9" opacity="0.35"/>
<circle cx="492.0" cy="690.3" r="2.1" fill="#C9D1D9" opacity="0.42"/>
<circle cx="573.1" cy="666.5" r="3.0" fill="#C9D1D9" opacity="0.54"/>
<circle cx="433.6" cy="670.0" r="2.1" fill="#C9D1D9" opacity="0.23"/>
<circle cx="547.1" cy="26.3" r="2.5" fill="#C9D1D9" opacity="0.44"/>
<circle cx="667.1" cy="312.9" r="1.5" fill="#C9D1D9" opacity="0.50"/>
<circle cx="625.9" cy="218.2" r="2.5" fill="#C9D1D9" opacity="0.40"/>
<circle cx="445.9" cy="158.0" r="1.8" fill="#C9D1D9" opacity="0.19"/>
<circle cx="746.5" cy="495.2" r="2.6" fill="#C9D1D9" opacity="0.57"/>
<circle cx="835.1" cy="361.7" r="3.1" fill="#C9D1D9" opacity="0.23"/>
<circle cx="442.3" cy="243.0" r="3.4" fill="#C9D1D9" opacity="0.53"/>
<circle cx="237.9" cy="222.0" r="2.0" fill="#C9D1D9" opacity="0.35"/>
<circle cx="271.2" cy="706.5" r="1.9" fill="#C9D1D9" opacity="0.28"/>
<circle cx="634.1" cy="303.3" r="1.4" fill="#C9D1D9" opacity="0.47"/>
<circle cx="623.0" cy="216.8" r="1.5" fill="#C9D1D9" opacity="0.41"/>
<circle cx="488.2" cy="337.7" r="2.6" fill="#C9D1D9" opacity="0.47"/>
<circle cx="531.8" cy="146.4" r="1.6" fill="#C9D1D9" opacity="0.47"/>
<circle cx="441.7" cy="209.7" r="1.7" fill="#C9D1D9" opacity="0.35"/>
<circle cx="810.3" cy="639.0" r="1.9" fill="#C9D1D9" opacity="0.22"/>
<circle cx="542.3" cy="44.6" r="3.1" fill="#C9D1D9" opacity="0.45"/>
<circle cx="385.8" cy="225.6" r="1.8" fill="#C9D1D9" opacity="0.49"/>
<circle cx="782.9" cy="350.2" r="1.9" fill="#C9D1D9" opacity="0.21"/>
<circle cx="805.1" cy="123.9" r="2.3" fill="#C9D1D9" opacity="0.30"/>
<circle cx="177.2" cy="590.6" r="2.0" fill="#C9D1D9" opacity="0.32"/>
<circle cx="426.7" cy="615.3" r="2.8" fill="#C9D1D9" opacity="0.21"/>
<circle cx="698.4" cy="600.4" r="2.9" fill="#C9D1D9" opacity="0.41"/>
<circle cx="351.9" cy="650.4" r="2.7" fill="#C9D1D9" opacity="0.22"/>
<circle cx="728.2" cy="140.3" r="3.2" fill="#C9D1D9" opacity="0.22"/>
<circle cx="243.1" cy="700.1" r="1.6" fill="#C9D1D9" opacity="0.29"/>
<circle cx="720.0" cy="373.1" r="1.7" fill="#C9D1D9" opacity="0.37"/>
<circle cx="621.7" cy="354.2" r="1.9" fill="#C9D1D9" opacity="0.16"/>
<circle cx="262.8" cy="610.3" r="3.6" fill="#C9D1D9" opacity="0.16"/>
<circle cx="386.1" cy="730.2" r="1.7" fill="#C9D1D9" opacity="0.40"/>
<circle cx="457.7" cy="518.4" r="3.5" fill="#C9D1D9" opacity="0.19"/>
<circle cx="734.6" cy="692.6" r="2.8" fill="#C9D1D9" opacity="0.37"/>
<circle cx="838.2" cy="601.6" r="2.0" fill="#C9D1D9" opacity="0.49"/>
<circle cx="176.6" cy="135.3" r="1.5" fill="#C9D1D9" opacity="0.20"/>
<circle cx="496.7" cy="180.0" r="2.0" fill="#C9D1D9" opacity="0.47"/>
<circle cx="685.3" cy="571.1" r="3.2" fill="#C9D1D9" opacity="0.25"/>
<circle cx="307.3" cy="322.3" r="3.0" fill="#C9D1D9" opacity="0.37"/>
<circle cx="757.1" cy="548.6" r="1.7" fill="#C9D1D9" opacity="0.50"/>
<circle cx="833.9" cy="178.9" r="2.6" fill="#C9D1D9" opacity="0.40"/>
<circle cx="219.5" cy="510.2" r="2.7" fill="#C9D1D9" opacity="0.36"/>
<circle cx="599.0" cy="617.8" r="2.0" fill="#C9D1D9" opacity="0.25"/>
<circle cx="315.7" cy="344.0" r="3.3" fill="#C9D1D9" opacity="0.21"/>
<circle cx="481.2" cy="331.7" r="3.1" fill="#C9D1D9" opacity="0.34"/>
<circle cx="329.5" cy="610.3" r="2.8" fill="#C9D1D9" opacity="0.39"/>
<circle cx="311.9" cy="725.7" r="1.5" fill="#C9D1D9" opacity="0.24"/>
<circle cx="712.9" cy="552.7" r="2.5" fill="#C9D1D9" opacity="0.27"/>
<circle cx="101.8" cy="544.5" r="3.4" fill="#C9D1D9" opacity="0.53"/>
<circle cx="811.4" cy="514.2" r="2.2" fill="#C9D1D9" opacity="0.53"/>
<circle cx="258.1" cy="545.4" r="3.4" fill="#C9D1D9" opacity="0.38"/>
<circle cx="577.4" cy="205.3" r="1.7" fill="#C9D1D9" opacity="0.43"/>
<circle cx="165.4" cy="303.0" r="2.7" fill="#C9D1D9" opacity="0.30"/>
<circle cx="215.5" cy="459.5" r="2.3" fill="#C9D1D9" opacity="0.46"/>
<circle cx="822.8" cy="589.2" r="1.5" fill="#C9D1D9" opacity="0.46"/>
<circle cx="700.1" cy="207.7" r="2.7" fill="#C9D1D9" opacity="0.28"/>
<circle cx="707.2" cy="558.9" r="2.3" fill="#C9D1D9" opacity="0.39"/>
<circle cx="402.1" cy="610.1" r="2.4" fill="#C9D1D9" opacity="0.38"/>
<circle cx="112.7" cy="235.4" r="2.3" fill="#C9D1D9" opacity="0.41"/>
<circle cx="521.8" cy="361.2" r="2.9" fill="#C9D1D9" opacity="0.21"/>
<circle cx="568.1" cy="679.5" r="2.3" fill="#C9D1D9" opacity="0.39"/>
<circle cx="328.8" cy="244.4" r="1.5" fill="#C9D1D9" opacity="0.42"/>
<circle cx="624.3" cy="574.2" r="3.5" fill="#C9D1D9" opacity="0.34"/>
<circle cx="305.8" cy="502.3" r="2.7" fill="#C9D1D9" opacity="0.52"/>
<circle cx="133.4" cy="576.7" r="2.0" fill="#C9D1D9" opacity="0.18"/>
<circle cx="556.4" cy="564.1" r="2.5" fill="#C9D1D9" opacity="0.47"/>
<circle cx="499.0" cy="422.7" r="2.2" fill="#C9D1D9" opacity="0.34"/>
<circle cx="297.2" cy="654.6" r="2.0" fill="#C9D1D9" opacity="0.31"/>
<circle cx="831.0" cy="318.4" r="2.8" fill="#C9D1D9" opacity="0.51"/>
<circle cx="207.6" cy="477.4" r="3.1" fill="#C9D1D9" opacity="0.20"/>
<circle cx="779.1" cy="685.7" r="2.4" fill="#C9D1D9" opacity="0.57"/>
<circle cx="306.2" cy="397.9" r="1.9" fill="#C9D1D9" opacity="0.28"/>
<circle cx="256.0" cy="343.2" r="2.8" fill="#C9D1D9" opacity="0.54"/>
<circle cx="257.8" cy="166.1" r="3.1" fill="#C9D1D9" opacity="0.55"/>
<circle cx="261.9" cy="582.8" r="2.4" fill="#C9D1D9" opacity="0.54"/>
<circle cx="715.5" cy="388.9" r="2.5" fill="#C9D1D9" opacity="0.37"/>
<circle cx="583.9" cy="729.9" r="2.8" fill="#C9D1D9" opacity="0.19"/>
<circle cx="590.3" cy="532.8" r="3.1" fill="#C9D1D9" opacity="0.36"/>
<circle cx="704.7" cy="264.1" r="3.2" fill="#C9D1D9" opacity="0.40"/>
<circle cx="579.5" cy="268.9" r="3.4" fill="#C9D1D9" opacity="0.39"/>
<circle cx="405.9" cy="55.4" r="2.2" fill="#C9D1D9" opacity="0.58"/>
<circle cx="360.1" cy="623.9" r="2.0" fill="#C9D1D9" opacity="0.23"/>
<circle cx="703.8" cy="541.6" r="1.6" fill="#C9D1D9" opacity="0.43"/>
<circle cx="394.6" cy="132.7" r="2.5" fill="#C9D1D9" opacity="0.30"/>
<circle cx="438.6" cy="625.2" r="1.6" fill="#C9D1D9" opacity="0.25"/>
<circle cx="97.0" cy="378.5" r="2.4" fill="#C9D1D9" opacity="0.57"/>
<circle cx="537.1" cy="527.7" r="3.0" fill="#C9D1D9" opacity="0.57"/>
<circle cx="519.6" cy="433.1" r="2.8" fill="#C9D1D9" opacity="0.43"/>
<circle cx="737.8" cy="197.4" r="2.8" fill="#C9D1D9" opacity="0.40"/>
<circle cx="122.3" cy="331.5" r="2.9" fill="#C9D1D9" opacity="0.50"/>
<circle cx="306.1" cy="453.5" r="1.7" fill="#C9D1D9" opacity="0.24"/>
<circle cx="808.2" cy="629.1" r="3.5" fill="#C9D1D9" opacity="0.43"/>
<circle cx="356.8" cy="350.5" r="3.2" fill="#C9D1D9" opacity="0.41"/>
<circle cx="639.6" cy="358.5" r="3.2" fill="#C9D1D9" opacity="0.35"/>
<circle cx="306.5" cy="48.4" r="3.1" fill="#C9D1D9" opacity="0.31"/>
<circle cx="425.9" cy="317.1" r="3.1" fill="#C9D1D9" opacity="0.38"/>
<circle cx="702.6" cy="695.8" r="2.4" fill="#C9D1D9" opacity="0.24"/>
<circle cx="164.0" cy="353.1" r="2.8" fill="#C9D1D9" opacity="0.37"/>
<circle cx="124.6" cy="464.8" r="3.6" fill="#C9D1D9" opacity="0.47"/>
<circle cx="405.6" cy="697.7" r="3.4" fill="#C9D1D9" opacity="0.29"/>
<circle cx="154.4" cy="560.4" r="1.7" fill="#C9D1D9" opacity="0.29"/>
<circle cx="370.8" cy="616.2" r="2.2" fill="#C9D1D9" opacity="0.25"/>
<circle cx="262.3" cy="112.3" r="2.4" fill="#C9D1D9" opacity="0.32"/>
<circle cx="227.7" cy="254.7" r="3.4" fill="#C9D1D9" opacity="0.31"/>
<circle cx="720.6" cy="232.0" r="2.9" fill="#C9D1D9" opacity="0.48"/>
<circle cx="470.2" cy="638.9" r="2.8" fill="#C9D1D9" opacity="0.26"/>
<circle cx="557.6" cy="370.3" r="1.6" fill="#C9D1D9" opacity="0.52"/>
<circle cx="90.5" cy="297.5" r="2.5" fill="#C9D1D9" opacity="0.53"/>
<circle cx="567.7" cy="67.3" r="3.1" fill="#C9D1D9" opacity="0.42"/>
<circle cx="221.3" cy="495.4" r="2.4" fill="#C9D1D9" opacity="0.56"/>
<circle cx="450.7" cy="318.9" r="3.4" fill="#C9D1D9" opacity="0.55"/>
<circle cx="403.4" cy="100.9" r="3.1" fill="#C9D1D9" opacity="0.20"/>
<circle cx="406.4" cy="510.7" r="3.2" fill="#C9D1D9" opacity="0.45"/>
<circle cx="650.2" cy="221.6" r="2.6" fill="#C9D1D9" opacity="0.17"/>
<circle cx="466.5" cy="608.7" r="2.5" fill="#C9D1D9" opacity="0.30"/>
<circle cx="687.7" cy="521.6" r="3.2" fill="#C9D1D9" opacity="0.24"/>
<circle cx="626.2" cy="363.7" r="2.7" fill="#C9D1D9" opacity="0.19"/>
<circle cx="211.2" cy="271.1" r="2.7" fill="#C9D1D9" opacity="0.53"/>
<circle cx="265.2" cy="685.2" r="2.3" fill="#C9D1D9" opacity="0.35"/>
<circle cx="444.7" cy="468.9" r="3.0" fill="#C9D1D9" opacity="0.16"/>
<circle cx="446.3" cy="124.3" r="1.6" fill="#C9D1D9" opacity="0.46"/>
<circle cx="294.5" cy="613.8" r="1.4" fill="#C9D1D9" opacity="0.45"/>
<circle cx="390.2" cy="166.7" r="2.6" fill="#C9D1D9" opacity="0.40"/>
<circle cx="314.1" cy="392.1" r="1.6" fill="#C9D1D9" opacity="0.54"/>
<circle cx="210.3" cy="283.6" r="3.5" fill="#C9D1D9" opacity="0.24"/>
<circle cx="305.7" cy="465.2" r="3.1" fill="#C9D1D9" opacity="0.26"/>
<circle cx="335.0" cy="129.2" r="2.4" fill="#C9D1D9" opacity="0.30"/>
<circle cx="577.2" cy="508.1" r="3.3" fill="#C9D1D9" opacity="0.28"/>
<circle cx="319.6" cy="307.5" r="2.1" fill="#C9D1D9" opacity="0.42"/>
<circle cx="576.2" cy="382.0" r="3.0" fill="#C9D1D9" opacity="0.38"/>
<circle cx="502.8" cy="552.0" r="3.5" fill="#C9D1D9" opacity="0.36"/>
<circle cx="270.2" cy="347.6" r="3.1" fill="#C9D1D9" opacity="0.34"/>
<circle cx="105.4" cy="386.5" r="2.0" fill="#C9D1D9" opacity="0.56"/>
<circle cx="633.1" cy="686.5" r="2.7" fill="#C9D1D9" opacity="0.49"/>
<circle cx="457.9" cy="302.2" r="2.6" fill="#C9D1D9" opacity="0.46"/>
<circle cx="286.2" cy="462.5" r="2.4" fill="#C9D1D9" opacity="0.33"/>
<circle cx="592.0" cy="433.1" r="1.7" fill="#C9D1D9" opacity="0.32"/>
<circle cx="357.7" cy="237.7" r="3.0" fill="#C9D1D9" opacity="0.27"/>
<circle cx="578.9" cy="687.7" r="2.1" fill="#C9D1D9" opacity="0.51"/>
<circle cx="753.7" cy="327.9" r="1.7" fill="#C9D1D9" opacity="0.47"/>
<circle cx="780.5" cy="624.6" r="2.8" fill="#C9D1D9" opacity="0.33"/>
<circle cx="375.5" cy="195.6" r="1.7" fill="#C9D1D9" opacity="0.21"/>
<circle cx="774.9" cy="634.9" r="3.2" fill="#C9D1D9" opacity="0.26"/>
<circle cx="691.7" cy="206.0" r="1.7" fill="#C9D1D9" opacity="0.34"/>
<circle cx="809.0" cy="232.6" r="3.0" fill="#C9D1D9" opacity="0.46"/>
<circle cx="834.9" cy="299.6" r="2.8" fill="#C9D1D9" opacity="0.35"/>
<circle cx="768.0" cy="633.9" r="1.8" fill="#C9D1D9" opacity="0.49"/>
<circle cx="695.1" cy="127.0" r="3.3" fill="#C9D1D9" opacity="0.53"/>
<circle cx="265.6" cy="265.1" r="1.5" fill="#C9D1D9" opacity="0.32"/>
<circle cx="347.6" cy="248.8" r="2.7" fill="#C9D1D9" opacity="0.35"/>
<circle cx="569.0" cy="382.0" r="3.0" fill="#C9D1D9" opacity="0.49"/>
<circle cx="724.7" cy="255.7" r="3.5" fill="#C9D1D9" opacity="0.22"/>
<circle cx="653.3" cy="617.9" r="3.5" fill="#C9D1D9" opacity="0.26"/>
<circle cx="294.6" cy="384.4" r="2.1" fill="#C9D1D9" opacity="0.36"/>
<circle cx="228.4" cy="682.4" r="1.8" fill="#C9D1D9" opacity="0.58"/>
<circle cx="723.6" cy="136.1" r="2.6" fill="#C9D1D9" opacity="0.20"/>
<circle cx="781.6" cy="204.1" r="2.4" fill="#C9D1D9" opacity="0.39"/>
<circle cx="666.8" cy="433.5" r="2.6" fill="#C9D1D9" opacity="0.31"/>
<circle cx="183.9" cy="346.4" r="1.7" fill="#C9D1D9" opacity="0.31"/>
<circle cx="590.1" cy="118.3" r="2.8" fill="#C9D1D9" opacity="0.50"/>
<circle cx="241.9" cy="380.4" r="1.8" fill="#C9D1D9" opacity="0.46"/>
<circle cx="410.8" cy="732.9" r="3.5" fill="#C9D1D9" opacity="0.40"/>
<circle cx="551.9" cy="62.0" r="2.0" fill="#C9D1D9" opacity="0.27"/>
<circle cx="365.8" cy="722.6" r="3.3" fill="#C9D1D9" opacity="0.34"/>
<circle cx="413.2" cy="31.8" r="1.7" fill="#C9D1D9" opacity="0.38"/>
<circle cx="436.9" cy="151.4" r="2.5" fill="#C9D1D9" opacity="0.31"/>
<circle cx="741.6" cy="473.7" r="2.4" fill="#C9D1D9" opacity="0.42"/>
<circle cx="468.2" cy="185.7" r="1.5" fill="#C9D1D9" opacity="0.28"/>
<circle cx="302.0" cy="592.4" r="2.1" fill="#C9D1D9" opacity="0.32"/>
<circle cx="134.3" cy="436.3" r="2.1" fill="#C9D1D9" opacity="0.55"/>
<circle cx="389.0" cy="254.3" r="3.3" fill="#C9D1D9" opacity="0.34"/>
<circle cx="282.5" cy="431.8" r="1.4" fill="#C9D1D9" opacity="0.35"/>
<circle cx="637.7" cy="352.6" r="3.1" fill="#C9D1D9" opacity="0.43"/>
<circle cx="320.5" cy="200.3" r="2.8" fill="#C9D1D9" opacity="0.41"/>
<circle cx="313.6" cy="518.3" r="1.8" fill="#C9D1D9" opacity="0.53"/>
<circle cx="348.4" cy="568.1" r="2.6" fill="#C9D1D9" opacity="0.29"/>
<circle cx="393.3" cy="497.6" r="3.3" fill="#C9D1D9" opacity="0.20"/>
<circle cx="465.6" cy="141.2" r="2.7" fill="#C9D1D9" opacity="0.34"/>
<circle cx="354.4" cy="157.7" r="2.4" fill="#C9D1D9" opacity="0.44"/>
<circle cx="671.5" cy="312.4" r="2.9" fill="#C9D1D9" opacity="0.48"/>
<circle cx="440.2" cy="521.4" r="1.7" fill="#C9D1D9" opacity="0.54"/>
<circle cx="414.0" cy="666.4" r="2.7" fill="#C9D1D9" opacity="0.36"/>
<circle cx="396.8" cy="60.5" r="1.8" fill="#C9D1D9" opacity="0.41"/>
<circle cx="398.8" cy="737.6" r="2.7" fill="#C9D1D9" opacity="0.28"/>
<circle cx="355.2" cy="231.6" r="2.4" fill="#C9D1D9" opacity="0.35"/>
<circle cx="702.9" cy="77.3" r="3.5" fill="#C9D1D9" opacity="0.49"/>
<circle cx="220.3" cy="115.8" r="1.8" fill="#C9D1D9" opacity="0.51"/>
<circle cx="498.2" cy="510.9" r="2.4" fill="#C9D1D9" opacity="0.57"/>
<circle cx="790.4" cy="291.2" r="2.0" fill="#C9D1D9" opacity="0.32"/>
<circle cx="687.0" cy="122.6" r="1.9" fill="#C9D1D9" opacity="0.41"/>
<circle cx="716.6" cy="504.0" r="1.5" fill="#C9D1D9" opacity="0.50"/>
<circle cx="679.9" cy="238.0" r="3.1" fill="#C9D1D9" opacity="0.46"/>
<circle cx="367.7" cy="136.6" r="3.0" fill="#C9D1D9" opacity="0.30"/>
<circle cx="195.7" cy="610.0" r="3.2" fill="#C9D1D9" opacity="0.48"/>
<circle cx="348.5" cy="541.0" r="1.9" fill="#C9D1D9" opacity="0.18"/>
<circle cx="661.3" cy="677.3" r="2.4" fill="#C9D1D9" opacity="0.40"/>
<circle cx="627.7" cy="239.1" r="3.0" fill="#C9D1D9" opacity="0.35"/>
<circle cx="841.7" cy="256.1" r="3.6" fill="#C9D1D9" opacity="0.52"/>
<circle cx="563.4" cy="393.0" r="1.9" fill="#C9D1D9" opacity="0.52"/>
<circle cx="353.8" cy="118.7" r="2.5" fill="#C9D1D9" opacity="0.51"/>
<circle cx="793.1" cy="376.3" r="2.5" fill="#C9D1D9" opacity="0.45"/>
<circle cx="620.6" cy="474.7" r="2.9" fill="#C9D1D9" opacity="0.22"/>
<circle cx="542.3" cy="723.6" r="2.2" fill="#C9D1D9" opacity="0.31"/>
<circle cx="582.1" cy="522.0" r="1.6" fill="#C9D1D9" opacity="0.57"/>
<circle cx="816.0" cy="572.1" r="2.3" fill="#C9D1D9" opacity="0.38"/>
<circle cx="425.7" cy="264.4" r="1.9" fill="#C9D1D9" opacity="0.47"/>
<circle cx="462.0" cy="278.9" r="1.6" fill="#C9D1D9" opacity="0.24"/>
<circle cx="629.1" cy="686.4" r="1.4" fill="#C9D1D9" opacity="0.34"/>
<circle cx="421.3" cy="184.5" r="1.6" fill="#C9D1D9" opacity="0.41"/>
<circle cx="730.0" cy="392.5" r="1.4" fill="#C9D1D9" opacity="0.48"/>
<circle cx="651.6" cy="88.6" r="2.3" fill="#C9D1D9" opacity="0.25"/>
<circle cx="644.4" cy="188.8" r="3.4" fill="#C9D1D9" opacity="0.36"/>
<circle cx="795.4" cy="465.8" r="1.9" fill="#C9D1D9" opacity="0.45"/>
<circle cx="504.3" cy="421.3" r="2.2" fill="#C9D1D9" opacity="0.58"/>
<circle cx="235.5" cy="356.4" r="2.0" fill="#C9D1D9" opacity="0.31"/>
<circle cx="287.7" cy="142.2" r="2.5" fill="#C9D1D9" opacity="0.33"/>
<circle cx="241.2" cy="126.1" r="3.1" fill="#C9D1D9" opacity="0.18"/>
<circle cx="697.6" cy="654.1" r="1.6" fill="#C9D1D9" opacity="0.51"/>
<circle cx="710.9" cy="146.5" r="2.8" fill="#C9D1D9" opacity="0.23"/>
<circle cx="717.8" cy="466.4" r="2.5" fill="#C9D1D9" opacity="0.40"/>
<circle cx="752.0" cy="159.3" r="1.9" fill="#C9D1D9" opacity="0.51"/>
<circle cx="494.1" cy="479.7" r="3.1" fill="#C9D1D9" opacity="0.17"/>
<circle cx="342.2" cy="285.1" r="2.1" fill="#C9D1D9" opacity="0.57"/>
<circle cx="509.9" cy="29.0" r="3.1" fill="#C9D1D9" opacity="0.28"/>
<circle cx="112.3" cy="204.5" r="1.5" fill="#C9D1D9" opacity="0.47"/>
<circle cx="837.0" cy="337.8" r="1.9" fill="#C9D1D9" opacity="0.45"/>
<circle cx="671.0" cy="388.7" r="3.0" fill="#C9D1D9" opacity="0.19"/>
<circle cx="256.2" cy="150.7" r="2.9" fill="#C9D1D9" opacity="0.57"/>
<circle cx="533.6" cy="271.7" r="3.0" fill="#C9D1D9" opacity="0.35"/>
<circle cx="802.9" cy="461.6" r="2.5" fill="#C9D1D9" opacity="0.40"/>
<circle cx="747.0" cy="93.1" r="3.6" fill="#C9D1D9" opacity="0.19"/>
<circle cx="631.6" cy="301.1" r="2.7" fill="#C9D1D9" opacity="0.57"/>
<circle cx="629.9" cy="354.8" r="2.0" fill="#C9D1D9" opacity="0.24"/>
<circle cx="275.1" cy="406.3" r="2.9" fill="#C9D1D9" opacity="0.49"/>
<circle cx="452.6" cy="215.4" r="3.4" fill="#C9D1D9" opacity="0.32"/>
<circle cx="643.0" cy="378.0" r="3.2" fill="#C9D1D9" opacity="0.29"/>
<circle cx="308.5" cy="208.6" r="3.0" fill="#C9D1D9" opacity="0.56"/>
<circle cx="405.0" cy="70.2" r="1.9" fill="#C9D1D9" opacity="0.44"/>
<circle cx="635.4" cy="631.7" r="2.1" fill="#C9D1D9" opacity="0.26"/>
<circle cx="208.5" cy="273.4" r="1.7" fill="#C9D1D9" opacity="0.56"/>
<circle cx="371.5" cy="639.3" r="3.3" fill="#C9D1D9" opacity="0.29"/>
<circle cx="352.4" cy="402.9" r="2.9" fill="#C9D1D9" opacity="0.54"/>
<circle cx="495.0" cy="618.7" r="2.4" fill="#C9D1D9" opacity="0.33"/>
<circle cx="370.9" cy="368.3" r="3.2" fill="#C9D1D9" opacity="0.42"/>
<circle cx="751.2" cy="432.6" r="1.7" fill="#C9D1D9" opacity="0.23"/>
<circle cx="648.5" cy="252.4" r="1.6" fill="#C9D1D9" opacity="0.45"/>
<circle cx="377.4" cy="129.8" r="2.5" fill="#C9D1D9" opacity="0.42"/>
<circle cx="707.1" cy="434.2" r="2.9" fill="#C9D1D9" opacity="0.39"/>
<circle cx="160.1" cy="567.1" r="3.0" fill="#C9D1D9" opacity="0.35"/>
<circle cx="310.4" cy="370.5" r="1.5" fill="#C9D1D9" opacity="0.29"/>
<circle cx="593.7" cy="321.1" r="2.8" fill="#C9D1D9" opacity="0.39"/>
<circle cx="407.0" cy="522.7" r="1.7" fill="#C9D1D9" opacity="0.42"/>
<circle cx="279.6" cy="252.5" r="2.0" fill="#C9D1D9" opacity="0.33"/>
<circle cx="401.8" cy="186.7" r="1.8" fill="#C9D1D9" opacity="0.36"/>
<circle cx="753.4" cy="139.4" r="2.5" fill="#C9D1D9" opacity="0.52"/>
<circle cx="254.0" cy="481.4" r="2.8" fill="#C9D1D9" opacity="0.49"/>
<circle cx="422.9" cy="90.6" r="1.9" fill="#C9D1D9" opacity="0.57"/>
<circle cx="594.8" cy="68.1" r="2.4" fill="#C9D1D9" opacity="0.21"/>
<circle cx="217.7" cy="545.9" r="1.8" fill="#C9D1D9" opacity="0.21"/>
<circle cx="526.5" cy="634.2" r="2.1" fill="#C9D1D9" opacity="0.22"/>
<circle cx="584.1" cy="211.2" r="1.8" fill="#C9D1D9" opacity="0.20"/>
<circle cx="654.6" cy="464.2" r="1.7" fill="#C9D1D9" opacity="0.20"/>
<circle cx="742.0" cy="575.1" r="2.3" fill="#C9D1D9" opacity="0.27"/>
<circle cx="565.6" cy="578.3" r="2.7" fill="#C9D1D9" opacity="0.17"/>
<circle cx="362.4" cy="136.3" r="2.9" fill="#C9D1D9" opacity="0.26"/>
<circle cx="767.7" cy="573.5" r="2.1" fill="#C9D1D9" opacity="0.56"/>
<circle cx="417.1" cy="632.3" r="3.2" fill="#C9D1D9" opacity="0.42"/>
<circle cx="740.2" cy="270.8" r="3.4" fill="#C9D1D9" opacity="0.53"/>
<circle cx="557.9" cy="353.7" r="3.6" fill="#C9D1D9" opacity="0.30"/>
<circle cx="703.5" cy="129.5" r="1.6" fill="#C9D1D9" opacity="0.43"/>
<circle cx="736.3" cy="161.8" r="1.5" fill="#C9D1D9" opacity="0.23"/>
<circle cx="83.5" cy="386.1" r="2.3" fill="#C9D1D9" opacity="0.33"/>
<circle cx="235.3" cy="265.0" r="2.9" fill="#C9D1D9" opacity="0.32"/>
<circle cx="547.4" cy="463.5" r="2.2" fill="#C9D1D9" opacity="0.37"/>
<circle cx="802.9" cy="321.2" r="2.9" fill="#C9D1D9" opacity="0.22"/>
<circle cx="524.0" cy="354.9" r="2.1" fill="#C9D1D9" opacity="0.31"/>
<circle cx="398.9" cy="178.4" r="2.9" fill="#C9D1D9" opacity="0.21"/>
<circle cx="349.4" cy="38.0" r="1.9" fill="#C9D1D9" opacity="0.43"/>
<circle cx="424.5" cy="62.1" r="3.3" fill="#C9D1D9" opacity="0.33"/>
<circle cx="464.2" cy="78.4" r="1.6" fill="#C9D1D9" opacity="0.27"/>
<circle cx="688.4" cy="348.9" r="3.5" fill="#C9D1D9" opacity="0.21"/>
<circle cx="449.6" cy="299.5" r="2.1" fill="#C9D1D9" opacity="0.57"/>
<circle cx="760.2" cy="211.3" r="3.2" fill="#C9D1D9" opacity="0.52"/>
<circle cx="204.3" cy="464.3" r="2.4" fill="#C9D1D9" opacity="0.26"/>
<circle cx="118.6" cy="232.8" r="2.9" fill="#C9D1D9" opacity="0.46"/>
<circle cx="445.1" cy="513.6" r="2.9" fill="#C9D1D9" opacity="0.22"/>
<circle cx="791.6" cy="628.8" r="1.4" fill="#C9D1D9" opacity="0.46"/>
<circle cx="288.4" cy="409.7" r="2.7" fill="#C9D1D9" opacity="0.53"/>
<circle cx="460.7" cy="273.1" r="1.4" fill="#C9D1D9" opacity="0.39"/>
<circle cx="768.5" cy="607.7" r="3.4" fill="#C9D1D9" opacity="0.51"/>
<circle cx="496.8" cy="247.4" r="3.0" fill="#C9D1D9" opacity="0.20"/>
<circle cx="745.9" cy="422.7" r="2.9" fill="#C9D1D9" opacity="0.26"/>
<circle cx="245.5" cy="565.7" r="2.4" fill="#C9D1D9" opacity="0.56"/>
<circle cx="267.2" cy="68.3" r="3.3" fill="#C9D1D9" opacity="0.29"/>
<circle cx="136.3" cy="289.7" r="3.5" fill="#C9D1D9" opacity="0.43"/>
<circle cx="521.8" cy="184.8" r="3.0" fill="#C9D1D9" opacity="0.22"/>
<circle cx="782.4" cy="221.8" r="2.0" fill="#C9D1D9" opacity="0.35"/>
<circle cx="556.2" cy="355.1" r="2.4" fill="#C9D1D9" opacity="0.22"/>
<circle cx="718.4" cy="446.4" r="3.0" fill="#C9D1D9" opacity="0.56"/>
<circle cx="695.5" cy="328.9" r="1.8" fill="#C9D1D9" opacity="0.41"/>
<circle cx="470.4" cy="393.2" r="2.4" fill="#C9D1D9" opacity="0.52"/>
<circle cx="704.6" cy="432.3" r="2.6" fill="#C9D1D9" opacity="0.39"/>
<circle cx="737.7" cy="614.3" r="2.0" fill="#C9D1D9" opacity="0.57"/>
<circle cx="404.0" cy="278.4" r="2.8" fill="#C9D1D9" opacity="0.25"/>
<circle cx="435.2" cy="251.7" r="3.0" fill="#C9D1D9" opacity="0.28"/>
<circle cx="271.2" cy="123.5" r="1.8" fill="#C9D1D9" opacity="0.18"/>
<circle cx="740.7" cy="294.3" r="3.0" fill="#C9D1D9" opacity="0.55"/>
<circle cx="518.0" cy="180.5" r="2.3" fill="#C9D1D9" opacity="0.30"/>
<circle cx="409.6" cy="164.8" r="3.4" fill="#C9D1D9" opacity="0.34"/>
<circle cx="787.6" cy="148.9" r="3.6" fill="#C9D1D9" opacity="0.29"/>
<circle cx="557.0" cy="449.8" r="1.9" fill="#C9D1D9" opacity="0.22"/>
<circle cx="651.2" cy="182.8" r="2.7" fill="#C9D1D9" opacity="0.31"/>
<circle cx="618.3" cy="671.0" r="1.9" fill="#C9D1D9" opacity="0.36"/>
<circle cx="366.1" cy="110.1" r="3.5" fill="#C9D1D9" opacity="0.48"/>
<circle cx="581.5" cy="77.8" r="3.2" fill="#C9D1D9" opacity="0.38"/>
<circle cx="750.0" cy="243.7" r="3.5" fill="#C9D1D9" opacity="0.41"/>
<circle cx="365.1" cy="314.2" r="3.0" fill="#C9D1D9" opacity="0.50"/>
<circle cx="658.2" cy="673.6" r="2.7" fill="#C9D1D9" opacity="0.49"/>
<circle cx="336.6" cy="487.0" r="2.2" fill="#C9D1D9" opacity="0.20"/>
<circle cx="645.8" cy="107.4" r="3.5" fill="#C9D1D9" opacity="0.20"/>
<circle cx="767.5" cy="344.1" r="1.8" fill="#C9D1D9" opacity="0.23"/>
<circle cx="324.3" cy="259.6" r="3.2" fill="#C9D1D9" opacity="0.29"/>
<circle cx="340.6" cy="398.7" r="1.8" fill="#C9D1D9" opacity="0.51"/>
<circle cx="322.5" cy="510.3" r="3.6" fill="#C9D1D9" opacity="0.32"/>
<circle cx="342.6" cy="265.0" r="3.0" fill="#C9D1D9" opacity="0.49"/>
<circle cx="576.9" cy="66.3" r="1.9" fill="#C9D1D9" opacity="0.18"/>
<circle cx="431.0" cy="29.8" r="3.1" fill="#C9D1D9" opacity="0.57"/>
<circle cx="281.1" cy="76.8" r="2.3" fill="#C9D1D9" opacity="0.43"/>
<circle cx="195.8" cy="604.4" r="2.3" fill="#C9D1D9" opacity="0.44"/>
<circle cx="253.9" cy="609.1" r="3.0" fill="#C9D1D9" opacity="0.23"/>
<circle cx="520.7" cy="164.3" r="2.3" fill="#C9D1D9" opacity="0.58"/>
<circle cx="558.7" cy="237.4" r="2.8" fill="#C9D1D9" opacity="0.37"/>
<circle cx="453.9" cy="691.3" r="2.8" fill="#C9D1D9" opacity="0.49"/>
<circle cx="789.7" cy="292.4" r="2.5" fill="#C9D1D9" opacity="0.38"/>
<circle cx="674.4" cy="456.2" r="2.0" fill="#C9D1D9" opacity="0.39"/>
<circle cx="245.3" cy="510.5" r="1.5" fill="#C9D1D9" opacity="0.37"/>
<circle cx="242.7" cy="581.8" r="2.2" fill="#C9D1D9" opacity="0.56"/>
<circle cx="539.1" cy="428.6" r="2.5" fill="#C9D1D9" opacity="0.18"/>
<circle cx="783.4" cy="177.5" r="2.2" fill="#C9D1D9" opacity="0.56"/>
<circle cx="185.3" cy="307.1" r="2.4" fill="#C9D1D9" opacity="0.32"/>
<circle cx="686.4" cy="75.4" r="2.4" fill="#C9D1D9" opacity="0.35"/>
<circle cx="390.3" cy="469.9" r="2.2" fill="#C9D1D9" opacity="0.53"/>
<circle cx="796.5" cy="580.5" r="2.9" fill="#C9D1D9" opacity="0.47"/>
<circle cx="357.2" cy="110.5" r="1.6" fill="#C9D1D9" opacity="0.38"/>
<circle cx="413.4" cy="574.3" r="2.0" fill="#C9D1D9" opacity="0.39"/>
<circle cx="506.0" cy="255.2" r="1.4" fill="#C9D1D9" opacity="0.41"/>
<circle cx="586.9" cy="117.1" r="3.0" fill="#C9D1D9" opacity="0.39"/>
<circle cx="232.7" cy="693.2" r="1.6" fill="#C9D1D9" opacity="0.18"/>
<circle cx="455.9" cy="434.0" r="2.9" fill="#C9D1D9" opacity="0.46"/>
<circle cx="328.2" cy="109.8" r="1.5" fill="#C9D1D9" opacity="0.18"/>
<circle cx="629.0" cy="495.4" r="2.4" fill="#C9D1D9" opacity="0.20"/>
<circle cx="730.8" cy="535.0" r="2.8" fill="#C9D1D9" opacity="0.23"/>
<circle cx="210.1" cy="563.8" r="2.0" fill="#C9D1D9" opacity="0.20"/>
<circle cx="617.2" cy="486.0" r="2.7" fill="#C9D1D9" opacity="0.52"/>
<circle cx="242.0" cy="514.7" r="1.5" fill="#C9D1D9" opacity="0.36"/>
<circle cx="799.8" cy="305.1" r="1.5" fill="#C9D1D9" opacity="0.29"/>
<circle cx="681.3" cy="250.0" r="1.4" fill="#C9D1D9" opacity="0.43"/>
<circle cx="464.8" cy="239.7" r="3.5" fill="#C9D1D9" opacity="0.43"/>
<circle cx="221.3" cy="95.3" r="1.8" fill="#C9D1D9" opacity="0.57"/>
<circle cx="501.6" cy="526.9" r="1.6" fill="#C9D1D9" opacity="0.43"/>
<circle cx="633.6" cy="91.1" r="2.4" fill="#C9D1D9" opacity="0.45"/>
<circle cx="228.3" cy="452.5" r="3.3" fill="#C9D1D9" opacity="0.58"/>
<circle cx="696.4" cy="640.7" r="2.5" fill="#C9D1D9" opacity="0.53"/>
<circle cx="632.4" cy="716.5" r="2.0" fill="#C9D1D9" opacity="0.34"/>
<circle cx="533.2" cy="132.5" r="3.2" fill="#C9D1D9" opacity="0.25"/>
<circle cx="783.3" cy="110.7" r="2.8" fill="#C9D1D9" opacity="0.45"/>
<circle cx="375.1" cy="561.0" r="3.3" fill="#C9D1D9" opacity="0.58"/>
<circle cx="428.0" cy="35.9" r="3.0" fill="#C9D1D9" opacity="0.44"/>
<circle cx="788.9" cy="599.7" r="1.5" fill="#C9D1D9" opacity="0.25"/>
<circle cx="772.1" cy="676.0" r="2.0" fill="#C9D1D9" opacity="0.31"/>
<circle cx="333.6" cy="723.1" r="2.6" fill="#C9D1D9" opacity="0.20"/>
<circle cx="646.5" cy="704.8" r="3.0" fill="#C9D1D9" opacity="0.25"/>
<circle cx="548.4" cy="387.4" r="1.7" fill="#C9D1D9" opacity="0.28"/>
<circle cx="557.9" cy="219.3" r="2.5" fill="#C9D1D9" opacity="0.56"/>
<circle cx="792.0" cy="590.8" r="1.8" fill="#C9D1D9" opacity="0.33"/>
<circle cx="294.3" cy="406.2" r="3.4" fill="#C9D1D9" opacity="0.40"/>
<circle cx="710.8" cy="129.0" r="2.7" fill="#C9D1D9" opacity="0.21"/>
<circle cx="400.6" cy="95.7" r="3.5" fill="#C9D1D9" opacity="0.33"/>
<circle cx="291.9" cy="326.9" r="2.8" fill="#C9D1D9" opacity="0.50"/>
<circle cx="285.9" cy="250.5" r="3.5" fill="#C9D1D9" opacity="0.37"/>
<circle cx="569.5" cy="288.3" r="2.9" fill="#C9D1D9" opacity="0.27"/>
<circle cx="711.0" cy="195.4" r="3.4" fill="#C9D1D9" opacity="0.49"/>
<circle cx="170.7" cy="482.2" r="1.8" fill="#C9D1D9" opacity="0.29"/>
<circle cx="540.0" cy="268.9" r="2.2" fill="#C9D1D9" opacity="0.28"/>
<circle cx="696.6" cy="391.8" r="2.7" fill="#C9D1D9" opacity="0.18"/>
<circle cx="439.5" cy="200.6" r="3.5" fill="#C9D1D9" opacity="0.42"/>
<circle cx="677.5" cy="84.1" r="1.5" fill="#C9D1D9" opacity="0.24"/>
<circle cx="751.7" cy="155.0" r="1.4" fill="#C9D1D9" opacity="0.55"/>
<circle cx="384.8" cy="269.4" r="3.0" fill="#C9D1D9" opacity="0.19"/>
<circle cx="137.0" cy="208.7" r="3.6" fill="#C9D1D9" opacity="0.36"/>
<circle cx="350.0" cy="614.3" r="1.6" fill="#C9D1D9" opacity="0.52"/>
<circle cx="510.7" cy="141.3" r="1.6" fill="#C9D1D9" opacity="0.51"/>
<circle cx="607.2" cy="720.7" r="2.7" fill="#C9D1D9" opacity="0.47"/>
<circle cx="537.9" cy="624.4" r="3.4" fill="#C9D1D9" opacity="0.41"/>
<circle cx="628.1" cy="670.4" r="1.8" fill="#C9D1D9" opacity="0.35"/></g>

  <g stroke="#F8FAFC" stroke-opacity="0.35" fill="none">
    <circle cx="500" cy="390" r="120" stroke-width="2"/>
    <circle cx="500" cy="390" r="190" stroke-width="2"/>
    <circle cx="500" cy="390" r="250" stroke-width="1.4" opacity="0.7"/>
    <line x1="500" y1="140" x2="500" y2="640"/>
    <line x1="250" y1="390" x2="750" y2="390"/>
    <line x1="323" y1="213" x2="677" y2="567" opacity="0.55"/>
    <line x1="677" y1="213" x2="323" y2="567" opacity="0.55"/>
  </g>

  <g><text x="500" y="88" text-anchor="middle" font-family="Arial, Helvetica, sans-serif" font-size="18" font-weight="700" fill="#F8FAFC">Production</text><text x="500" y="118" text-anchor="middle" font-family="Arial, Helvetica, sans-serif" font-size="14" font-weight="400" fill="#8B949E">Make</text>
<text x="675" y="158" text-anchor="start" font-family="Arial, Helvetica, sans-serif" font-size="18" font-weight="700" fill="#F8FAFC">Implementation</text><text x="675" y="188" text-anchor="start" font-family="Arial, Helvetica, sans-serif" font-size="14" font-weight="400" fill="#8B949E">Build</text>
<text x="820" y="388" text-anchor="start" font-family="Arial, Helvetica, sans-serif" font-size="18" font-weight="700" fill="#F8FAFC">Knowledge</text><text x="820" y="418" text-anchor="start" font-family="Arial, Helvetica, sans-serif" font-size="14" font-weight="400" fill="#8B949E">Know</text>
<text x="680" y="650" text-anchor="start" font-family="Arial, Helvetica, sans-serif" font-size="18" font-weight="700" fill="#F8FAFC">Impact</text><text x="680" y="680" text-anchor="start" font-family="Arial, Helvetica, sans-serif" font-size="14" font-weight="400" fill="#8B949E">Matter</text>
<text x="500" y="720" text-anchor="middle" font-family="Arial, Helvetica, sans-serif" font-size="18" font-weight="700" fill="#F8FAFC">Perception</text><text x="500" y="750" text-anchor="middle" font-family="Arial, Helvetica, sans-serif" font-size="14" font-weight="400" fill="#8B949E">Observe</text>
<text x="292" y="650" text-anchor="end" font-family="Arial, Helvetica, sans-serif" font-size="18" font-weight="700" fill="#F8FAFC">Expression</text><text x="292" y="680" text-anchor="end" font-family="Arial, Helvetica, sans-serif" font-size="14" font-weight="400" fill="#8B949E">Express</text>
<text x="130" y="388" text-anchor="end" font-family="Arial, Helvetica, sans-serif" font-size="18" font-weight="700" fill="#F8FAFC">Behavior</text><text x="130" y="418" text-anchor="end" font-family="Arial, Helvetica, sans-serif" font-size="14" font-weight="400" fill="#8B949E">Act</text>
<text x="305" y="158" text-anchor="end" font-family="Arial, Helvetica, sans-serif" font-size="18" font-weight="700" fill="#F8FAFC">Inquiry</text><text x="305" y="188" text-anchor="end" font-family="Arial, Helvetica, sans-serif" font-size="14" font-weight="400" fill="#8B949E">Verify</text></g>
  <g><text x="500" y="326" text-anchor="middle" font-family="Arial, Helvetica, sans-serif" font-size="18" font-weight="700" fill="#F8FAFC">Philosophy</text><text x="500" y="354" text-anchor="middle" font-family="Arial, Helvetica, sans-serif" font-size="13" font-weight="400" fill="#8B949E">Why?</text>
<text x="592" y="303" text-anchor="middle" font-family="Arial, Helvetica, sans-serif" font-size="18" font-weight="700" fill="#F8FAFC">Science</text>
<text x="585" y="535" text-anchor="middle" font-family="Arial, Helvetica, sans-serif" font-size="18" font-weight="700" fill="#F8FAFC">Engineering</text>
<text x="500" y="505" text-anchor="middle" font-family="Arial, Helvetica, sans-serif" font-size="18" font-weight="700" fill="#F8FAFC">Economy</text><text x="500" y="533" text-anchor="middle" font-family="Arial, Helvetica, sans-serif" font-size="13" font-weight="400" fill="#8B949E">For what?</text>
<text x="405" y="535" text-anchor="middle" font-family="Arial, Helvetica, sans-serif" font-size="18" font-weight="700" fill="#F8FAFC">Design</text>
<text x="410" y="303" text-anchor="middle" font-family="Arial, Helvetica, sans-serif" font-size="18" font-weight="700" fill="#F8FAFC">Art</text></g>

  <g>
    <circle cx="500" cy="390" r="42" fill="#07080B" stroke="#2563EB" stroke-width="4"/>
    <circle cx="500" cy="390" r="60" fill="none" stroke="#2563EB" stroke-opacity="0.22" stroke-width="10"/>
    <text x="500" y="399" text-anchor="middle" font-family="Arial, Helvetica, sans-serif" font-size="26" font-weight="800" fill="#FFFFFF">LH</text>
  </g>

  <g transform="translate(930 150)">
    <text x="0" y="0" font-family="Arial, Helvetica, sans-serif" font-size="18" font-weight="700" fill="#3B82F6" letter-spacing="9">HUB CRIATIVO</text>
    <text x="0" y="104" font-family="Arial, Helvetica, sans-serif" font-size="66" font-weight="800" fill="#FFFFFF">Um espaço para</text>
    <text x="0" y="190" font-family="Arial, Helvetica, sans-serif" font-size="66" font-weight="800" fill="#FFFFFF">mentes curiosas.</text>
    <text x="0" y="274" font-family="Arial, Helvetica, sans-serif" font-size="25" font-weight="400" fill="#A7A7AA">Para pessoas com múltiplos interesses, mentes inquietas e</text>
    <text x="0" y="316" font-family="Arial, Helvetica, sans-serif" font-size="25" font-weight="400" fill="#A7A7AA">vontade de conectar ideias.</text>
    <text x="0" y="396" font-family="Arial, Helvetica, sans-serif" font-size="25" font-weight="400" fill="#A7A7AA">Aqui, reunimos quem valoriza boas conversas, troca de</text>
    <text x="0" y="438" font-family="Arial, Helvetica, sans-serif" font-size="25" font-weight="400" fill="#A7A7AA">repertórios e boas companhias para pensar, criar e</text>
    <text x="0" y="480" font-family="Arial, Helvetica, sans-serif" font-size="25" font-weight="400" fill="#A7A7AA">compartilhar os desafios da vida.</text>
    <rect x="0" y="552" width="420" height="72" rx="10" fill="#FFFFFF"/>
    <text x="174" y="598" text-anchor="middle" font-family="Arial, Helvetica, sans-serif" font-size="22" font-weight="800" fill="#070707">Ver conteúdos</text>
    <path d="M310 586h46m-18-18 20 18-20 18" fill="none" stroke="#050505" stroke-width="5" stroke-linecap="round" stroke-linejoin="round"/>
  </g>
</svg>
