<svg xmlns="http://www.w3.org/2000/svg" width="1600" height="768" viewBox="0 0 1600 768" role="img" aria-labelledby="title desc">
<title id="title">Hub Criativo - Um espaço para mentes curiosas</title>
<desc id="desc">Mapa visual do Hub Criativo com textura sutil, áreas de conhecimento e chamada para mentes curiosas.</desc>
<defs>
<radialGradient id="bgLeft" cx="34%" cy="48%" r="52%"><stop offset="0" stop-color="#171A22" stop-opacity="0.92"/><stop offset="0.62" stop-color="#07080A" stop-opacity="0.97"/><stop offset="1" stop-color="#000000"/></radialGradient>
<radialGradient id="bgRight" cx="76%" cy="42%" r="42%"><stop offset="0" stop-color="#15161B" stop-opacity="0.9"/><stop offset="0.7" stop-color="#050506" stop-opacity="0.97"/><stop offset="1" stop-color="#000000"/></radialGradient>
<radialGradient id="blueGlow" cx="32%" cy="52%" r="18%"><stop offset="0" stop-color="#2563EB" stop-opacity="0.25"/><stop offset="1" stop-color="#2563EB" stop-opacity="0"/></radialGradient>
<pattern id="softDots" width="52" height="52" patternUnits="userSpaceOnUse"><circle cx="8" cy="10" r="1.25" fill="#D1D5DB" opacity="0.18"/><circle cx="31" cy="22" r="0.95" fill="#D1D5DB" opacity="0.12"/><circle cx="46" cy="42" r="1.15" fill="#D1D5DB" opacity="0.14"/></pattern>
<radialGradient id="dotFade" cx="50%" cy="50%" r="50%"><stop offset="0" stop-color="#FFFFFF" stop-opacity="0.55"/><stop offset="0.58" stop-color="#FFFFFF" stop-opacity="0.34"/><stop offset="1" stop-color="#FFFFFF" stop-opacity="0"/></radialGradient>
<mask id="dotMask"><rect width="920" height="768" fill="url(#dotFade)"/></mask>
<filter id="softBlur" x="-20%" y="-20%" width="140%" height="140%"><feGaussianBlur stdDeviation="8"/></filter>
</defs>
<rect width="1600" height="768" rx="36" fill="#000"/><rect width="1600" height="768" rx="36" fill="url(#bgLeft)"/><rect width="1600" height="768" rx="36" fill="url(#bgRight)"/><circle cx="500" cy="390" r="235" fill="url(#blueGlow)" filter="url(#softBlur)"/><rect x="20" y="0" width="900" height="768" fill="url(#softDots)" opacity="0.38" mask="url(#dotMask)"/><g><circle cx="508.4" cy="131.9" r="1.12" fill="#F8FAFC" opacity="0.18"/><circle cx="274.6" cy="450.7" r="1.51" fill="#F8FAFC" opacity="0.24"/><circle cx="357.5" cy="206.3" r="1.30" fill="#F8FAFC" opacity="0.20"/><circle cx="372.1" cy="176.8" r="1.67" fill="#F8FAFC" opacity="0.18"/><circle cx="165.5" cy="433.5" r="1.23" fill="#F8FAFC" opacity="0.23"/><circle cx="411.1" cy="386.3" r="1.08" fill="#F8FAFC" opacity="0.22"/><circle cx="460.8" cy="539.1" r="1.45" fill="#F8FAFC" opacity="0.17"/><circle cx="770.7" cy="346.7" r="1.08" fill="#F8FAFC" opacity="0.18"/><circle cx="453.1" cy="589.7" r="1.15" fill="#F8FAFC" opacity="0.27"/><circle cx="589.1" cy="614.3" r="1.49" fill="#F8FAFC" opacity="0.23"/><circle cx="526.0" cy="51.5" r="1.97" fill="#F8FAFC" opacity="0.22"/><circle cx="687.6" cy="226.4" r="1.93" fill="#F8FAFC" opacity="0.22"/><circle cx="452.8" cy="688.5" r="1.47" fill="#F8FAFC" opacity="0.19"/><circle cx="719.7" cy="312.5" r="1.23" fill="#F8FAFC" opacity="0.27"/><circle cx="402.5" cy="388.7" r="1.81" fill="#F8FAFC" opacity="0.16"/><circle cx="349.4" cy="339.1" r="1.32" fill="#F8FAFC" opacity="0.21"/><circle cx="695.5" cy="236.3" r="1.99" fill="#F8FAFC" opacity="0.19"/><circle cx="714.3" cy="209.1" r="1.83" fill="#F8FAFC" opacity="0.20"/><circle cx="857.8" cy="297.6" r="1.69" fill="#F8FAFC" opacity="0.30"/><circle cx="89.3" cy="391.9" r="1.07" fill="#F8FAFC" opacity="0.26"/><circle cx="319.8" cy="251.1" r="0.98" fill="#F8FAFC" opacity="0.15"/><circle cx="796.6" cy="320.2" r="1.30" fill="#F8FAFC" opacity="0.18"/><circle cx="715.8" cy="642.5" r="1.12" fill="#F8FAFC" opacity="0.15"/><circle cx="622.7" cy="168.4" r="1.42" fill="#F8FAFC" opacity="0.28"/><circle cx="701.0" cy="416.4" r="1.30" fill="#F8FAFC" opacity="0.14"/><circle cx="418.0" cy="56.9" r="1.35" fill="#F8FAFC" opacity="0.24"/><circle cx="187.1" cy="265.4" r="1.64" fill="#F8FAFC" opacity="0.25"/><circle cx="671.0" cy="590.0" r="1.11" fill="#F8FAFC" opacity="0.16"/><circle cx="99.0" cy="500.6" r="1.07" fill="#F8FAFC" opacity="0.28"/><circle cx="642.2" cy="473.3" r="1.16" fill="#F8FAFC" opacity="0.21"/><circle cx="761.9" cy="246.0" r="1.60" fill="#F8FAFC" opacity="0.28"/><circle cx="346.6" cy="432.4" r="1.63" fill="#F8FAFC" opacity="0.20"/><circle cx="677.7" cy="255.3" r="1.04" fill="#F8FAFC" opacity="0.18"/><circle cx="498.9" cy="711.8" r="1.67" fill="#F8FAFC" opacity="0.20"/><circle cx="762.2" cy="223.6" r="1.54" fill="#F8FAFC" opacity="0.17"/><circle cx="545.9" cy="93.2" r="0.99" fill="#F8FAFC" opacity="0.28"/><circle cx="523.2" cy="204.5" r="1.50" fill="#F8FAFC" opacity="0.28"/><circle cx="306.7" cy="593.8" r="1.40" fill="#F8FAFC" opacity="0.29"/><circle cx="726.1" cy="604.4" r="1.04" fill="#F8FAFC" opacity="0.15"/><circle cx="642.1" cy="498.2" r="1.14" fill="#F8FAFC" opacity="0.28"/><circle cx="641.1" cy="91.0" r="1.34" fill="#F8FAFC" opacity="0.26"/><circle cx="312.8" cy="455.9" r="1.81" fill="#F8FAFC" opacity="0.22"/><circle cx="788.0" cy="210.8" r="1.95" fill="#F8FAFC" opacity="0.28"/><circle cx="515.2" cy="682.6" r="1.75" fill="#F8FAFC" opacity="0.30"/><circle cx="568.8" cy="162.3" r="1.23" fill="#F8FAFC" opacity="0.25"/><circle cx="696.0" cy="670.9" r="1.04" fill="#F8FAFC" opacity="0.13"/><circle cx="782.8" cy="267.5" r="1.15" fill="#F8FAFC" opacity="0.19"/><circle cx="338.7" cy="433.3" r="1.29" fill="#F8FAFC" opacity="0.17"/><circle cx="269.8" cy="581.0" r="1.59" fill="#F8FAFC" opacity="0.22"/><circle cx="352.4" cy="68.6" r="1.32" fill="#F8FAFC" opacity="0.15"/><circle cx="491.5" cy="575.1" r="1.05" fill="#F8FAFC" opacity="0.28"/><circle cx="164.0" cy="546.8" r="1.32" fill="#F8FAFC" opacity="0.25"/><circle cx="732.0" cy="304.7" r="1.61" fill="#F8FAFC" opacity="0.19"/><circle cx="327.8" cy="454.5" r="1.73" fill="#F8FAFC" opacity="0.21"/><circle cx="745.2" cy="336.9" r="1.86" fill="#F8FAFC" opacity="0.13"/><circle cx="270.6" cy="317.7" r="0.95" fill="#F8FAFC" opacity="0.19"/><circle cx="757.8" cy="285.8" r="1.86" fill="#F8FAFC" opacity="0.28"/><circle cx="702.6" cy="529.0" r="1.68" fill="#F8FAFC" opacity="0.19"/><circle cx="501.7" cy="469.3" r="1.91" fill="#F8FAFC" opacity="0.15"/><circle cx="135.8" cy="498.8" r="1.48" fill="#F8FAFC" opacity="0.27"/><circle cx="666.4" cy="429.7" r="1.51" fill="#F8FAFC" opacity="0.21"/><circle cx="442.6" cy="144.5" r="1.21" fill="#F8FAFC" opacity="0.30"/><circle cx="803.4" cy="566.4" r="1.59" fill="#F8FAFC" opacity="0.19"/><circle cx="733.4" cy="228.5" r="1.10" fill="#F8FAFC" opacity="0.25"/><circle cx="354.2" cy="91.3" r="1.55" fill="#F8FAFC" opacity="0.19"/><circle cx="791.4" cy="311.9" r="1.49" fill="#F8FAFC" opacity="0.18"/><circle cx="547.4" cy="117.6" r="1.14" fill="#F8FAFC" opacity="0.13"/><circle cx="286.7" cy="362.2" r="1.00" fill="#F8FAFC" opacity="0.18"/><circle cx="163.1" cy="477.6" r="1.72" fill="#F8FAFC" opacity="0.16"/><circle cx="497.8" cy="353.8" r="1.61" fill="#F8FAFC" opacity="0.29"/><circle cx="531.4" cy="181.7" r="0.97" fill="#F8FAFC" opacity="0.28"/><circle cx="339.2" cy="450.5" r="1.73" fill="#F8FAFC" opacity="0.23"/><circle cx="671.9" cy="72.3" r="1.66" fill="#F8FAFC" opacity="0.28"/><circle cx="240.9" cy="141.7" r="1.40" fill="#F8FAFC" opacity="0.27"/><circle cx="669.2" cy="558.8" r="1.18" fill="#F8FAFC" opacity="0.28"/><circle cx="171.1" cy="497.7" r="1.75" fill="#F8FAFC" opacity="0.18"/><circle cx="274.3" cy="413.6" r="1.54" fill="#F8FAFC" opacity="0.25"/><circle cx="718.4" cy="499.3" r="2.00" fill="#F8FAFC" opacity="0.26"/><circle cx="625.1" cy="83.9" r="1.10" fill="#F8FAFC" opacity="0.15"/><circle cx="180.9" cy="478.1" r="1.12" fill="#F8FAFC" opacity="0.21"/><circle cx="360.3" cy="218.9" r="1.59" fill="#F8FAFC" opacity="0.25"/><circle cx="514.4" cy="278.7" r="1.23" fill="#F8FAFC" opacity="0.21"/><circle cx="699.1" cy="147.6" r="0.97" fill="#F8FAFC" opacity="0.20"/><circle cx="483.7" cy="227.6" r="1.05" fill="#F8FAFC" opacity="0.16"/><circle cx="317.3" cy="508.3" r="1.65" fill="#F8FAFC" opacity="0.26"/><circle cx="649.9" cy="284.6" r="1.49" fill="#F8FAFC" opacity="0.15"/><circle cx="715.0" cy="150.1" r="1.41" fill="#F8FAFC" opacity="0.19"/><circle cx="466.5" cy="549.5" r="1.36" fill="#F8FAFC" opacity="0.27"/><circle cx="756.5" cy="205.2" r="1.72" fill="#F8FAFC" opacity="0.21"/><circle cx="250.2" cy="379.5" r="2.00" fill="#F8FAFC" opacity="0.20"/><circle cx="598.1" cy="662.4" r="1.96" fill="#F8FAFC" opacity="0.15"/><circle cx="445.1" cy="488.9" r="1.31" fill="#F8FAFC" opacity="0.26"/><circle cx="260.2" cy="211.2" r="1.72" fill="#F8FAFC" opacity="0.27"/><circle cx="503.1" cy="627.9" r="1.18" fill="#F8FAFC" opacity="0.20"/><circle cx="851.9" cy="434.4" r="1.26" fill="#F8FAFC" opacity="0.19"/><circle cx="395.4" cy="417.8" r="1.87" fill="#F8FAFC" opacity="0.22"/><circle cx="373.9" cy="540.5" r="1.24" fill="#F8FAFC" opacity="0.23"/><circle cx="162.0" cy="273.7" r="1.11" fill="#F8FAFC" opacity="0.19"/><circle cx="221.1" cy="171.1" r="1.93" fill="#F8FAFC" opacity="0.14"/><circle cx="342.9" cy="597.4" r="1.27" fill="#F8FAFC" opacity="0.23"/><circle cx="586.7" cy="97.6" r="1.57" fill="#F8FAFC" opacity="0.18"/><circle cx="620.5" cy="548.2" r="1.30" fill="#F8FAFC" opacity="0.26"/><circle cx="391.1" cy="499.7" r="1.19" fill="#F8FAFC" opacity="0.15"/><circle cx="271.6" cy="542.6" r="1.28" fill="#F8FAFC" opacity="0.28"/><circle cx="724.0" cy="288.9" r="1.04" fill="#F8FAFC" opacity="0.20"/><circle cx="132.4" cy="368.7" r="1.79" fill="#F8FAFC" opacity="0.18"/><circle cx="158.2" cy="508.5" r="1.33" fill="#F8FAFC" opacity="0.23"/><circle cx="781.8" cy="539.6" r="1.28" fill="#F8FAFC" opacity="0.30"/><circle cx="297.6" cy="565.1" r="1.99" fill="#F8FAFC" opacity="0.13"/><circle cx="210.0" cy="289.0" r="1.84" fill="#F8FAFC" opacity="0.15"/><circle cx="290.5" cy="238.7" r="1.38" fill="#F8FAFC" opacity="0.16"/><circle cx="617.3" cy="150.6" r="1.45" fill="#F8FAFC" opacity="0.23"/><circle cx="504.3" cy="427.6" r="1.44" fill="#F8FAFC" opacity="0.26"/><circle cx="247.9" cy="302.0" r="0.98" fill="#F8FAFC" opacity="0.28"/><circle cx="739.3" cy="424.1" r="1.33" fill="#F8FAFC" opacity="0.21"/></g>
<g stroke="#F8FAFC" stroke-opacity="0.31" fill="none"><circle cx="500" cy="390" r="120" stroke-width="2"/><circle cx="500" cy="390" r="190" stroke-width="2"/><circle cx="500" cy="390" r="250" stroke-width="1.4" opacity="0.72"/><line x1="500" y1="140" x2="500" y2="640"/><line x1="250" y1="390" x2="750" y2="390"/><line x1="323" y1="213" x2="677" y2="567" opacity="0.52"/><line x1="677" y1="213" x2="323" y2="567" opacity="0.52"/></g>
<g font-family="Arial, Helvetica, sans-serif"><text x="500" y="88" text-anchor="middle" font-size="18" font-weight="700" fill="#F8FAFC">Production</text><text x="500" y="118" text-anchor="middle" font-size="14" fill="#8B949E">Make</text><text x="675" y="158" text-anchor="start" font-size="18" font-weight="700" fill="#F8FAFC">Implementation</text><text x="675" y="188" text-anchor="start" font-size="14" fill="#8B949E">Build</text><text x="820" y="388" text-anchor="start" font-size="18" font-weight="700" fill="#F8FAFC">Knowledge</text><text x="820" y="418" text-anchor="start" font-size="14" fill="#8B949E">Know</text><text x="680" y="650" text-anchor="start" font-size="18" font-weight="700" fill="#F8FAFC">Impact</text><text x="680" y="680" text-anchor="start" font-size="14" fill="#8B949E">Matter</text><text x="500" y="720" text-anchor="middle" font-size="18" font-weight="700" fill="#F8FAFC">Perception</text><text x="500" y="750" text-anchor="middle" font-size="14" fill="#8B949E">Observe</text><text x="292" y="650" text-anchor="end" font-size="18" font-weight="700" fill="#F8FAFC">Expression</text><text x="292" y="680" text-anchor="end" font-size="14" fill="#8B949E">Express</text><text x="130" y="388" text-anchor="end" font-size="18" font-weight="700" fill="#F8FAFC">Behavior</text><text x="130" y="418" text-anchor="end" font-size="14" fill="#8B949E">Act</text><text x="305" y="158" text-anchor="end" font-size="18" font-weight="700" fill="#F8FAFC">Inquiry</text><text x="305" y="188" text-anchor="end" font-size="14" fill="#8B949E">Verify</text><text x="500" y="326" text-anchor="middle" font-size="18" font-weight="700" fill="#F8FAFC">Philosophy</text><text x="500" y="354" text-anchor="middle" font-size="13" fill="#8B949E">Why?</text><text x="592" y="303" text-anchor="middle" font-size="18" font-weight="700" fill="#F8FAFC">Science</text><text x="585" y="535" text-anchor="middle" font-size="18" font-weight="700" fill="#F8FAFC">Engineering</text><text x="500" y="505" text-anchor="middle" font-size="18" font-weight="700" fill="#F8FAFC">Economy</text><text x="500" y="533" text-anchor="middle" font-size="13" fill="#8B949E">For what?</text><text x="405" y="535" text-anchor="middle" font-size="18" font-weight="700" fill="#F8FAFC">Design</text><text x="410" y="303" text-anchor="middle" font-size="18" font-weight="700" fill="#F8FAFC">Art</text></g>
<g><circle cx="500" cy="390" r="42" fill="#07080B" stroke="#2563EB" stroke-width="4"/><circle cx="500" cy="390" r="60" fill="none" stroke="#2563EB" stroke-opacity="0.20" stroke-width="10"/><text x="500" y="399" text-anchor="middle" font-family="Arial, Helvetica, sans-serif" font-size="26" font-weight="800" fill="#FFFFFF">LH</text></g>
<g transform="translate(930 150)" font-family="Arial, Helvetica, sans-serif"><text x="0" y="0" font-size="18" font-weight="700" fill="#3B82F6" letter-spacing="9">HUB CRIATIVO</text><text x="0" y="104" font-size="66" font-weight="800" fill="#FFFFFF">Um espaço para</text><text x="0" y="190" font-size="66" font-weight="800" fill="#FFFFFF">mentes curiosas.</text><text x="0" y="274" font-size="25" fill="#A7A7AA">Para pessoas com múltiplos interesses, mentes inquietas e</text><text x="0" y="316" font-size="25" fill="#A7A7AA">vontade de conectar ideias.</text><text x="0" y="396" font-size="25" fill="#A7A7AA">Aqui, reunimos quem valoriza boas conversas, troca de</text><text x="0" y="438" font-size="25" fill="#A7A7AA">repertórios e boas companhias para pensar, criar e</text><text x="0" y="480" font-size="25" fill="#A7A7AA">compartilhar os desafios da vida.</text></g>
</svg>
